<svg width="18" height="18" viewBox="0 0 18 18" fill="none" xmlns="http://www.w3.org/2000/svg">
<path d="M1 15.5455V2.45455C1 2.06878 1.15325 1.69881 1.42603 1.42603C1.69881 1.15325 2.06878 1 2.45455 1H15.5455C15.9312 1 16.3012 1.15325 16.574 1.42603C16.8468 1.69881 17 2.06878 17 2.45455V15.5455C17 15.9312 16.8468 16.3012 16.574 16.574C16.3012 16.8468 15.9312 17 15.5455 17H2.45455C2.06878 17 1.69881 16.8468 1.42603 16.574C1.15325 16.3012 1 15.9312 1 15.5455Z" stroke="black"/>
<path d="M11.1818 5.36363H14.0909" stroke="black" stroke-linecap="round" stroke-linejoin="round"/>
<path d="M11.1818 11.5455H14.0909" stroke="black" stroke-linecap="round" stroke-linejoin="round"/>
<path d="M11.1818 13.7273H14.0909" stroke="black" stroke-linecap="round" stroke-linejoin="round"/>
<path d="M5.36364 5.36363V6.81818M3.90909 5.36363H5.36364H3.90909ZM6.81818 5.36363H5.36364H6.81818ZM5.36364 5.36363V3.90909V5.36363Z" stroke="black" stroke-linecap="round" stroke-linejoin="round"/>
<path d="M5.36364 12.6364L6.39273 13.6647M4.33527 13.6647L5.36364 12.6364L4.33527 13.6647ZM6.39273 11.608L5.36364 12.6364L6.39273 11.608ZM5.36364 12.6364L4.33527 11.608L5.36364 12.6364Z" stroke="black" stroke-linecap="round" stroke-linejoin="round"/>
</svg>
