<svg width="23" height="22" viewBox="0 0 23 22" fill="none" xmlns="http://www.w3.org/2000/svg">
<path fill-rule="evenodd" clip-rule="evenodd" d="M0.31029 16.3706C0.788372 16.2822 0.665138 15.8888 0.665138 15.1522H6.36448V21.3254C5.41096 21.3254 4.45744 21.3254 3.50378 21.3254C0.0902932 21.3254 0.665138 21.6442 0.665138 20.1567L0.665285 17.8192C0.667197 16.9855 0.654991 17.2313 0.328231 17.0101C0.085293 17.1153 0.0166174 17.1585 0 17.3064V20.8911C0.000735284 21.6979 0.15191 22.0055 0.975428 22C7.15432 21.9594 13.456 21.9997 19.6489 21.9997C20.3288 21.9997 21.0094 21.9968 21.6893 21.9998C22.5391 22.0035 22.7057 21.7348 22.7093 20.9618V17.2939C22.6891 17.1641 22.616 17.115 22.3853 17.0102C22.2471 17.1015 22.1235 17.0754 22.0666 17.2556C22.014 17.4219 22.044 18.7531 22.044 18.9881C22.044 21.6612 22.3153 21.3399 21.1768 21.3236L16.3446 21.3256V15.1522L21.1865 15.154L22.044 15.1524C22.044 15.4105 22.0275 15.7278 22.0435 15.9786C22.0604 16.2423 22.1587 16.3362 22.3988 16.3634C22.6487 16.3517 22.7006 16.2105 22.7093 15.9655V10.8101C22.7003 10.5315 22.6869 10.3477 22.6679 10.3094C22.55 10.0728 22.2485 10.1327 21.9109 10.1327C21.9109 8.98079 22.0712 8.04514 21.4977 7.36002C21.0703 6.84942 21.5906 6.37296 21.1491 5.91527C20.9338 5.69201 20.2255 5.71302 20.0336 5.89261C19.9005 6.01721 19.835 6.16609 19.8249 6.40038C19.7822 7.38849 19.9803 6.86805 19.5327 7.54274C19.303 7.88895 19.2483 8.12845 19.2496 8.69434C19.2506 9.17379 19.2496 9.65339 19.2496 10.1328H18.8948C18.8948 9.02833 18.9387 8.83831 18.4301 8.17644C18.0305 7.65675 18.788 6.62498 17.5648 6.62468C16.7448 6.62453 16.8033 6.96373 16.8115 7.66182C16.8155 7.9973 16.8246 7.96868 16.6785 8.15632C16.1538 8.82922 16.2336 9.00076 16.2336 10.1328H15.0804C15.0804 9.24413 14.4367 9.27558 13.8797 9.27558C13.3573 9.27558 13.3904 9.66158 13.4795 9.82075C13.5944 10.0257 14.0688 9.95295 14.3707 9.95295V10.1328H8.33857V9.95295C8.64047 9.95295 9.11488 10.0255 9.22973 9.82075C9.31355 9.67112 9.35855 9.27543 8.82959 9.27558C8.40342 9.27558 8.20621 9.23504 7.93872 9.41299C7.71181 9.56397 7.62887 9.84296 7.62887 10.1328H2.52805C2.52805 9.63833 2.52805 9.14383 2.52805 8.64948C2.52805 8.1046 2.43203 7.59848 2.76555 7.36181C3.15231 7.08743 3.63525 7.3326 3.72525 7.70593C3.80657 8.04305 3.7701 8.75917 3.7701 9.18884C3.8751 9.26008 3.9523 9.36828 4.11892 9.35561C4.58038 9.32059 4.432 8.66021 4.43612 8.01951C4.44641 6.36819 2.71541 6.17951 2.08335 7.07477C1.73159 7.57299 1.81865 8.1824 1.81865 9.0091C1.4538 9.0091 1.11366 9.00478 1.10425 9.37096C1.0941 9.76367 1.44616 9.72835 1.81865 9.72835V10.133C1.47866 10.133 1.13851 10.1334 0.798519 10.133C0.239556 10.1322 0.0539699 10.0995 0.000147057 10.4771V12.4705V16.0323C0.015441 16.2207 0.0798519 16.3421 0.310584 16.3709L0.31029 16.3706ZM16.8918 9.45845V10.1538H18.2073C18.2071 9.08869 18.2993 9.11641 17.7924 8.46363C17.6514 8.28211 17.6171 8.23576 17.6177 7.93247L17.6109 7.39743C17.5643 7.27343 17.6532 7.34795 17.5199 7.30026C17.3574 7.59192 17.6677 8.02383 17.2993 8.47079C17.076 8.74173 16.892 8.9486 16.892 9.4586L16.8918 9.45845ZM19.9228 10.1418L21.2388 10.1458C21.2385 9.09376 21.4047 8.31922 20.9384 7.74692C20.5224 7.23617 20.6749 7.34601 20.6553 6.66671C20.6491 6.45299 20.6931 6.51812 20.5803 6.44315C20.4761 6.51379 20.5234 6.40664 20.5066 6.62319C20.4596 7.22753 20.6844 7.17611 20.2431 7.72337C20.1469 7.84275 20.0893 7.90385 20.024 8.04097C19.8477 8.41132 19.9228 9.64519 19.9228 10.1418ZM0.661756 11.406L22.0325 11.4037L22.0272 10.8336L0.685579 10.8273L0.661756 11.406ZM16.3445 14.4631L22.0237 14.4754L22.035 12.086L16.3514 12.0797L16.3443 14.4631H16.3445ZM7.0302 14.4631L15.7013 14.4777L15.6788 12.095L7.0077 12.0804L7.0302 14.4631ZM0.665727 14.478L6.35742 14.4772L6.36433 12.095L0.67955 12.0797L0.665579 14.4778L0.665727 14.478ZM7.0302 21.3253H16.3223H15.6789V15.1521H7.05211L7.03005 21.3253H7.0302Z" fill="black"/>
<path fill-rule="evenodd" clip-rule="evenodd" d="M8.04798 15.7457C7.50681 15.8858 7.60652 16.3232 7.60667 16.9202L7.60505 20.0685C7.61593 20.6956 7.93078 20.7585 8.51577 20.7563C9.28091 20.7533 14.4273 20.8069 14.7126 20.7281C15.1761 20.6001 15.1025 20.0226 15.1025 19.5275L15.1036 16.3789C15.0863 15.7603 14.7673 15.7194 14.1935 15.7212C13.4307 15.7238 8.33886 15.6704 8.04798 15.7457ZM8.27151 20.0518C8.48121 20.1141 14.2278 20.1141 14.4372 20.0518L14.4366 16.4107L8.29386 16.3959L8.27136 20.0516L8.27151 20.0518Z" fill="black"/>
<path fill-rule="evenodd" clip-rule="evenodd" d="M12.5073 0.333266C12.4794 1.78965 12.3795 1.78085 13.0984 2.16626C13.5948 2.43244 14.1804 2.7238 14.6258 3.00861L8.07401 3.01681C8.23842 2.87671 9.31635 2.31857 9.60473 2.15672C10.4155 1.70157 10.15 1.79978 10.1966 0.333266C10.124 -0.0752415 9.65429 -0.108327 9.54135 0.248614C9.45929 0.507787 9.49179 1.10855 9.49179 1.457C9.37679 1.48815 9.15606 1.62779 9.01856 1.69665L6.65227 2.98447C6.21316 3.2183 6.3458 3.50967 6.34154 4.15514C6.33815 4.66693 6.47212 4.95591 6.96094 4.9659C9.2015 5.0115 11.9419 4.96322 14.2378 4.96322C15.7817 4.96322 16.3746 5.19288 16.3679 4.15514C16.3601 2.95675 16.582 3.29491 15.1391 2.4764C14.9705 2.38087 14.8336 2.32901 14.6728 2.22975L13.2176 1.45685C13.2176 1.11362 13.2469 0.539234 13.1778 0.283488C13.0685 -0.121294 12.605 -0.08165 12.5075 0.332968L12.5073 0.333266ZM7.02653 4.29151L14.6811 4.29047L15.6652 4.27959L15.6649 3.70222H14.6867L14.3708 3.68389L7.03006 3.68628L7.02653 4.29151Z" fill="black"/>
<path fill-rule="evenodd" clip-rule="evenodd" d="M9.159 12.3739C7.9446 12.659 8.4321 14.3751 9.53708 14.089C10.638 13.8039 10.224 12.1238 9.159 12.3739Z" fill="black"/>
<path fill-rule="evenodd" clip-rule="evenodd" d="M13.2359 12.3717C12.0554 12.6311 12.4513 14.3027 13.546 14.1026C13.9723 14.0246 14.346 13.6085 14.2454 13.0557C14.17 12.6416 13.7367 12.2617 13.236 12.3717H13.2359Z" fill="black"/>
<path fill-rule="evenodd" clip-rule="evenodd" d="M2.6185 12.6347C2.42085 12.6955 2.29762 12.8778 2.41762 13.1173C2.51791 13.3173 2.78379 13.2903 3.0157 13.2887C3.54554 13.2849 4.98229 13.4808 4.61068 12.7894C4.51127 12.6044 4.28965 12.6117 4.03715 12.6134C3.75451 12.6153 2.80952 12.576 2.6185 12.6347Z" fill="black"/>
<path fill-rule="evenodd" clip-rule="evenodd" d="M18.289 12.6432C18.0248 12.7557 17.7599 13.2949 18.6726 13.2888C19.2459 13.2851 20.6586 13.4872 20.2875 12.7705C20.1905 12.583 19.9447 12.612 19.6939 12.6135C19.419 12.615 18.4674 12.5673 18.289 12.6432Z" fill="black"/>
<path fill-rule="evenodd" clip-rule="evenodd" d="M5.48625 16.9438C5.16435 17.0697 5.27817 17.7185 5.27802 18.089C5.27787 18.4838 5.19008 19.1674 5.74551 18.9729C6.05286 18.8653 5.94316 18.1803 5.94331 17.8194C5.94345 17.4441 6.01772 16.736 5.48625 16.9439V16.9438Z" fill="black"/>
<path fill-rule="evenodd" clip-rule="evenodd" d="M16.974 16.9438C16.6521 17.0697 16.766 17.7185 16.7658 18.089C16.7657 18.4838 16.6779 19.1674 17.2333 18.9729C17.5407 18.8653 17.431 18.1803 17.4311 17.8194C17.4312 17.4441 17.5055 16.736 16.974 16.9439V16.9438Z" fill="black"/>
</svg>
