<svg width="16" height="17" viewBox="0 0 16 17" fill="none" xmlns="http://www.w3.org/2000/svg">
<path d="M6.94118 0.357109C7.18375 0.127779 7.5049 0 7.83871 0C8.17252 0 8.49368 0.127779 8.73624 0.357109L15.0647 6.33935C15.4566 6.70908 15.6774 7.22513 15.6774 7.76338V15.0403C15.6774 15.5601 15.471 16.0585 15.1034 16.426C14.7359 16.7935 14.2375 17 13.7177 17H11.1048C10.8474 17 10.5924 16.9493 10.3546 16.8507C10.1168 16.7521 9.90067 16.6077 9.71868 16.4256C9.53669 16.2435 9.39237 16.0273 9.29396 15.7894C9.19555 15.5514 9.14499 15.2965 9.14516 15.039V11.7729C9.14516 11.5996 9.07634 11.4335 8.95384 11.311C8.83133 11.1885 8.66518 11.1197 8.49194 11.1197H7.18548C7.01224 11.1197 6.84609 11.1885 6.72358 11.311C6.60108 11.4335 6.53226 11.5996 6.53226 11.7729V15.039C6.53226 15.5588 6.32579 16.0572 5.95828 16.4247C5.59077 16.7922 5.09232 16.9987 4.57258 16.9987H1.95968C1.43994 16.9987 0.941487 16.7922 0.573976 16.4247C0.206466 16.0572 0 15.5588 0 15.039V7.76208C0 7.22382 0.222097 6.70777 0.614032 6.33805L6.94118 0.354496V0.357109ZM7.83871 1.30559L1.51026 7.28914C1.44601 7.35005 1.39482 7.42338 1.35978 7.50468C1.32475 7.58598 1.3066 7.67355 1.30645 7.76208V15.039C1.30645 15.2123 1.37527 15.3784 1.49778 15.5009C1.62028 15.6234 1.78643 15.6922 1.95968 15.6922H4.57258C4.74583 15.6922 4.91198 15.6234 5.03448 15.5009C5.15699 15.3784 5.22581 15.2123 5.22581 15.039V11.7729C5.22581 11.2531 5.43227 10.7547 5.79978 10.3872C6.16729 10.0197 6.66575 9.81321 7.18548 9.81321H8.49194C9.01168 9.81321 9.51013 10.0197 9.87764 10.3872C10.2451 10.7547 10.4516 11.2531 10.4516 11.7729V15.039C10.4516 15.2123 10.5204 15.3784 10.6429 15.5009C10.7654 15.6234 10.9316 15.6922 11.1048 15.6922H13.7177C13.891 15.6922 14.0571 15.6234 14.1796 15.5009C14.3021 15.3784 14.371 15.2123 14.371 15.039V7.76208C14.371 7.67333 14.3529 7.58551 14.3179 7.50397C14.2829 7.42244 14.2316 7.34889 14.1672 7.28784L7.83871 1.30559Z" fill="black"/>
</svg>
