<svg width="26" height="26" viewBox="0 0 26 26" fill="none" xmlns="http://www.w3.org/2000/svg">
<path d="M17.55 3.9C18.3751 3.89987 19.1694 4.2136 19.7718 4.77755C20.3741 5.3415 20.7394 6.11344 20.7935 6.9368L20.8 7.15V10.465C21.4966 10.6075 22.1273 10.9743 22.5955 11.5094C23.0636 12.0445 23.3435 12.7184 23.3922 13.4277L23.4 13.65V21.45C23.4003 21.6124 23.3398 21.7691 23.2303 21.8891C23.1209 22.0092 22.9705 22.0839 22.8087 22.0985C22.647 22.1132 22.4856 22.0668 22.3563 21.9684C22.2271 21.87 22.1393 21.7268 22.1104 21.567L22.1 21.45V18.2H3.9V21.45C3.9003 21.6124 3.83977 21.7691 3.73034 21.8891C3.62091 22.0092 3.4705 22.0839 3.30873 22.0985C3.14697 22.1132 2.98557 22.0668 2.85632 21.9684C2.72707 21.87 2.63934 21.7268 2.6104 21.567L2.6 21.45V13.65C2.59985 12.9008 2.85856 12.1745 3.33235 11.5941C3.80614 11.0137 4.46591 10.6148 5.2 10.465V7.15C5.19987 6.32487 5.5136 5.53058 6.07755 4.92824C6.6415 4.32591 7.41344 3.96063 8.2368 3.9065L8.45 3.9H17.55ZM20.15 11.7H5.85C5.36546 11.7 4.89827 11.8804 4.53946 12.206C4.18065 12.5317 3.95594 12.9792 3.9091 13.4615L3.9 13.65V16.9H22.1V13.65C22.1 13.1655 21.9196 12.6983 21.594 12.3395C21.2683 11.9807 20.8208 11.7559 20.3385 11.7091L20.15 11.7ZM17.55 5.2H8.45C7.96525 5.20002 7.49789 5.3806 7.13906 5.7065C6.78022 6.03241 6.55564 6.48029 6.5091 6.9628L6.5 7.15V10.4H7.8V9.75C7.8 9.57761 7.86848 9.41228 7.99038 9.29038C8.11228 9.16848 8.27761 9.1 8.45 9.1H11.7C11.8724 9.1 12.0377 9.16848 12.1596 9.29038C12.2815 9.41228 12.35 9.57761 12.35 9.75V10.4H13.65V9.75C13.65 9.57761 13.7185 9.41228 13.8404 9.29038C13.9623 9.16848 14.1276 9.1 14.3 9.1H17.55C17.7224 9.1 17.8877 9.16848 18.0096 9.29038C18.1315 9.41228 18.2 9.57761 18.2 9.75V10.4H19.5V7.15C19.5 6.66546 19.3196 6.19827 18.994 5.83946C18.6683 5.48065 18.2208 5.25594 17.7385 5.2091L17.55 5.2Z" fill="black"/>
</svg>
