<svg width="23" height="19" viewBox="0 0 23 19" fill="none" xmlns="http://www.w3.org/2000/svg">
<path d="M21.6356 6.97959H19.1017V6.78571C19.1017 6.63146 19.0401 6.48352 18.9304 6.37444C18.8208 6.26536 18.672 6.20408 18.5169 6.20408H12.2797C12.1246 6.20408 11.9758 6.26536 11.8662 6.37444C11.7565 6.48352 11.6949 6.63146 11.6949 6.78571V6.97959H5.0678V2.52041C5.0678 2.16047 5.21155 1.81528 5.46742 1.56076C5.7233 1.30625 6.07034 1.16327 6.4322 1.16327C6.79407 1.16327 7.14111 1.30625 7.39698 1.56076C7.65286 1.81528 7.79661 2.16047 7.79661 2.52041C7.79661 2.67467 7.85822 2.82261 7.96788 2.93168C8.07754 3.04076 8.22627 3.10204 8.38136 3.10204C8.53644 3.10204 8.68517 3.04076 8.79483 2.93168C8.90449 2.82261 8.9661 2.67467 8.9661 2.52041C8.9661 1.85195 8.69914 1.21088 8.22394 0.73821C7.74874 0.265542 7.10423 0 6.4322 0C5.76017 0 5.11566 0.265542 4.64047 0.73821C4.16527 1.21088 3.8983 1.85195 3.8983 2.52041V6.97959H1.36441C1.00254 6.97959 0.655501 7.12258 0.399625 7.37709C0.14375 7.6316 0 7.9768 0 8.33673V11.4388C0 12.8271 0.554463 14.1586 1.54141 15.1403C2.52836 16.122 3.86695 16.6735 5.26271 16.6735H5.45763V18.4184C5.45763 18.5726 5.51923 18.7206 5.6289 18.8296C5.73856 18.9387 5.88729 19 6.04237 19C6.19746 19 6.34619 18.9387 6.45585 18.8296C6.56551 18.7206 6.62712 18.5726 6.62712 18.4184V16.6735H16.3729V18.4184C16.3729 18.5726 16.4345 18.7206 16.5441 18.8296C16.6538 18.9387 16.8025 19 16.9576 19C17.1127 19 17.2614 18.9387 17.3711 18.8296C17.4808 18.7206 17.5424 18.5726 17.5424 18.4184V16.6735H17.7373C19.133 16.6735 20.4716 16.122 21.4586 15.1403C22.4455 14.1586 23 12.8271 23 11.4388V8.33673C23 7.9768 22.8562 7.6316 22.6004 7.37709C22.3445 7.12258 21.9975 6.97959 21.6356 6.97959ZM12.8644 7.36735H17.9322V10.8571H12.8644V7.36735ZM21.8305 11.4388C21.8305 12.5186 21.3993 13.5542 20.6316 14.3177C19.864 15.0813 18.8229 15.5102 17.7373 15.5102H5.26271C4.17712 15.5102 3.136 15.0813 2.36837 14.3177C1.60074 13.5542 1.16949 12.5186 1.16949 11.4388V8.33673C1.16949 8.28532 1.19003 8.236 1.22658 8.19964C1.26313 8.16328 1.31271 8.14286 1.36441 8.14286H11.6949V11.4388C11.6949 11.593 11.7565 11.741 11.8662 11.8501C11.9758 11.9591 12.1246 12.0204 12.2797 12.0204H18.5169C18.672 12.0204 18.8208 11.9591 18.9304 11.8501C19.0401 11.741 19.1017 11.593 19.1017 11.4388V8.14286H21.6356C21.6873 8.14286 21.7369 8.16328 21.7734 8.19964C21.81 8.236 21.8305 8.28532 21.8305 8.33673V11.4388Z" fill="black"/>
</svg>
