<svg width="459" height="203" viewBox="0 0 459 203" fill="none" xmlns="http://www.w3.org/2000/svg">
<path opacity="0.1" d="M113.104 107.28H187.696V195.84C176.944 203.712 165.472 209.424 153.28 212.976C141.184 216.528 128.512 218.304 115.264 218.304C97.984 218.304 82.24 215.616 68.032 210.24C53.92 204.768 41.824 197.28 31.744 187.776C21.664 178.176 13.888 166.848 8.416 153.792C2.944 140.64 0.208001 126.384 0.208001 111.024C0.208001 95.376 2.8 81.024 7.984 67.968C13.168 54.816 20.56 43.488 30.16 33.984C39.856 24.48 51.52 17.088 65.152 11.808C78.88 6.52799 94.192 3.88799 111.088 3.88799C119.824 3.88799 128.032 4.60799 135.712 6.04799C143.392 7.48799 150.448 9.45599 156.88 11.952C163.408 14.448 169.36 17.424 174.736 20.88C180.112 24.336 184.912 28.08 189.136 32.112L175.024 53.568C172.816 56.928 169.936 58.992 166.384 59.76C162.928 60.528 159.184 59.664 155.152 57.168C151.312 54.864 147.664 52.896 144.208 51.264C140.848 49.536 137.392 48.144 133.84 47.088C130.288 46.032 126.544 45.264 122.608 44.784C118.672 44.304 114.256 44.064 109.36 44.064C100.24 44.064 92.032 45.696 84.736 48.96C77.44 52.128 71.2 56.64 66.016 62.496C60.928 68.352 56.992 75.408 54.208 83.664C51.424 91.824 50.032 100.944 50.032 111.024C50.032 122.16 51.568 132.048 54.64 140.688C57.712 149.328 62.032 156.624 67.6 162.576C73.264 168.528 79.984 173.088 87.76 176.256C95.632 179.328 104.32 180.864 113.824 180.864C119.68 180.864 124.96 180.288 129.664 179.136C134.464 177.984 139.12 176.448 143.632 174.528V142.704H122.896C119.824 142.704 117.424 141.888 115.696 140.256C113.968 138.624 113.104 136.56 113.104 134.064V107.28ZM215.101 110.448H292.861V146.448H215.101V110.448ZM367.604 79.776C372.98 75.168 378.788 71.472 385.028 68.688C391.364 65.808 398.9 64.368 407.636 64.368C415.796 64.368 422.996 65.808 429.236 68.688C435.572 71.472 440.9 75.408 445.22 80.496C449.54 85.488 452.804 91.488 455.012 98.496C457.22 105.408 458.324 112.944 458.324 121.104V216H413.684V121.104C413.684 113.808 412.004 108.144 408.644 104.112C405.284 99.984 400.34 97.92 393.812 97.92C388.916 97.92 384.308 98.976 379.988 101.088C375.764 103.104 371.636 105.888 367.604 109.44V216H322.964V0.431986H367.604V79.776ZM564.254 155.232C555.326 155.616 547.982 156.384 542.222 157.536C536.462 158.688 531.902 160.128 528.542 161.856C525.182 163.584 522.83 165.552 521.486 167.76C520.238 169.968 519.614 172.368 519.614 174.96C519.614 180.048 521.006 183.648 523.79 185.76C526.574 187.776 530.654 188.784 536.03 188.784C541.79 188.784 546.83 187.776 551.15 185.76C555.47 183.744 559.838 180.48 564.254 175.968V155.232ZM483.902 87.408C492.926 79.44 502.91 73.536 513.854 69.696C524.894 65.76 536.702 63.792 549.278 63.792C558.302 63.792 566.414 65.28 573.614 68.256C580.91 71.136 587.054 75.216 592.046 80.496C597.134 85.68 601.022 91.872 603.71 99.072C606.398 106.272 607.742 114.144 607.742 122.688V216H587.294C583.07 216 579.854 215.424 577.646 214.272C575.534 213.12 573.758 210.72 572.318 207.072L569.15 198.864C565.406 202.032 561.806 204.816 558.35 207.216C554.894 209.616 551.294 211.68 547.55 213.408C543.902 215.04 539.966 216.24 535.742 217.008C531.614 217.872 527.006 218.304 521.918 218.304C515.102 218.304 508.91 217.44 503.342 215.712C497.774 213.888 493.022 211.248 489.086 207.792C485.246 204.336 482.27 200.064 480.158 194.976C478.046 189.792 476.99 183.84 476.99 177.12C476.99 171.744 478.334 166.32 481.022 160.848C483.71 155.28 488.366 150.24 494.99 145.728C501.614 141.12 510.542 137.28 521.774 134.208C533.006 131.136 547.166 129.408 564.254 129.024V122.688C564.254 113.952 562.43 107.664 558.782 103.824C555.23 99.888 550.142 97.92 543.518 97.92C538.238 97.92 533.918 98.496 530.558 99.648C527.198 100.8 524.174 102.096 521.486 103.536C518.894 104.976 516.35 106.272 513.854 107.424C511.358 108.576 508.382 109.152 504.926 109.152C501.854 109.152 499.262 108.384 497.15 106.848C495.038 105.312 493.31 103.488 491.966 101.376L483.902 87.408ZM747.3 84.528C747.3 87.6 746.772 90.576 745.716 93.456C744.66 96.336 743.268 98.688 741.54 100.512L679.188 182.88H745.86V216H627.78V197.856C627.78 196.032 628.26 193.728 629.22 190.944C630.18 188.16 631.62 185.568 633.54 183.168L696.468 99.792H631.812V66.672H747.3V84.528Z" fill="white"/>
</svg>
